<svg width="17" height="18" viewBox="0 0 17 18" fill="none" xmlns="http://www.w3.org/2000/svg">
<g clip-path="url(#clip0_183_4062)">
<path d="M15.5833 2.0941H13.2812V1.0316C13.2813 0.890708 13.2255 0.755545 13.1259 0.65585C13.0263 0.556155 12.8912 0.500094 12.7504 0.5C12.6095 0.499906 12.4743 0.555787 12.3746 0.655349C12.2749 0.754911 12.2188 0.89 12.2188 1.0309V2.0941H9.03125V1.0316C9.0313 0.96184 9.0176 0.892749 8.99095 0.828277C8.96429 0.763805 8.9252 0.705214 8.8759 0.65585C8.8266 0.606486 8.76806 0.567315 8.70363 0.540575C8.63919 0.513834 8.57012 0.500047 8.50035 0.5C8.35946 0.499906 8.22429 0.555787 8.1246 0.655349C8.0249 0.754911 7.96884 0.89 7.96875 1.0309V2.0941H4.78125V1.0316C4.7813 0.96184 4.7676 0.892749 4.74095 0.828277C4.71429 0.763805 4.6752 0.705214 4.6259 0.65585C4.5766 0.606486 4.51806 0.567315 4.45363 0.540575C4.38919 0.513834 4.32012 0.500047 4.25035 0.5C4.10946 0.499906 3.9743 0.555787 3.8746 0.655349C3.7749 0.754911 3.71884 0.89 3.71875 1.0309V2.0941H1.41667C1.04107 2.0941 0.680839 2.24326 0.415182 2.50879C0.149526 2.77431 0.0001878 3.13446 0 3.51006V16.083C0 16.4587 0.149256 16.819 0.414932 17.0847C0.680609 17.3504 1.04094 17.4996 1.41667 17.4996H15.5833C15.9591 17.4996 16.3194 17.3504 16.5851 17.0847C16.8507 16.819 17 16.4587 17 16.083V3.51006C16.9998 3.13446 16.8505 2.77431 16.5848 2.50879C16.3192 2.24326 15.9589 2.0941 15.5833 2.0941ZM15.9375 16.0837C15.9375 16.1775 15.9003 16.2675 15.834 16.3339C15.7678 16.4003 15.6778 16.4377 15.584 16.4379H1.41667C1.32274 16.4379 1.23265 16.4005 1.16623 16.3341C1.09981 16.2677 1.0625 16.1776 1.0625 16.0837V3.51077C1.06269 3.41696 1.10008 3.32706 1.16648 3.26079C1.23288 3.19453 1.32286 3.15731 1.41667 3.15731H3.71875V4.21981C3.71866 4.36071 3.77454 4.49587 3.8741 4.59557C3.97366 4.69526 4.10875 4.75132 4.24965 4.75142C4.39054 4.75151 4.5257 4.69563 4.6254 4.59607C4.72509 4.49651 4.78116 4.36142 4.78125 4.22052V3.15731H7.96875V4.21981C7.96866 4.36071 8.02454 4.49587 8.1241 4.59557C8.22366 4.69526 8.35875 4.75132 8.49965 4.75142C8.64054 4.75151 8.77571 4.69563 8.8754 4.59607C8.97509 4.49651 9.03116 4.36142 9.03125 4.22052V3.15731H12.2188V4.21981C12.2187 4.36071 12.2745 4.49587 12.3741 4.59557C12.4737 4.69526 12.6087 4.75132 12.7496 4.75142C12.8905 4.75151 13.0257 4.69563 13.1254 4.59607C13.2251 4.49651 13.2812 4.36142 13.2812 4.22052V3.15731H15.5833C15.677 3.1575 15.7668 3.1948 15.8331 3.26104C15.8993 3.32729 15.9366 3.41709 15.9368 3.51077L15.9375 16.0837Z" fill="black"/>
<path d="M3.71875 6.875H5.84375V8.46875H3.71875V6.875ZM3.71875 9.53125H5.84375V11.125H3.71875V9.53125ZM3.71875 12.1875H5.84375V13.7812H3.71875V12.1875ZM7.4375 12.1875H9.5625V13.7812H7.4375V12.1875ZM7.4375 9.53125H9.5625V11.125H7.4375V9.53125ZM7.4375 6.875H9.5625V8.46875H7.4375V6.875ZM11.1562 12.1875H13.2812V13.7812H11.1562V12.1875ZM11.1562 9.53125H13.2812V11.125H11.1562V9.53125ZM11.1562 6.875H13.2812V8.46875H11.1562V6.875Z" fill="black"/>
</g>
<defs>
<clipPath id="clip0_183_4062">
<rect width="17" height="17" fill="white" transform="translate(0 0.5)"/>
</clipPath>
</defs>
</svg>
