<svg width="167" height="50" viewBox="0 0 167 50" fill="none" xmlns="http://www.w3.org/2000/svg">
<g clip-path="url(#clip0_245_50)">
<mask id="mask0_245_50" style="mask-type:luminance" maskUnits="userSpaceOnUse" x="0" y="-5" width="167" height="51">
<path d="M167 -4.98633H0V45.0137H167V-4.98633Z" fill="white"/>
</mask>
<g mask="url(#mask0_245_50)">
<path d="M50.3193 14.7039L70.7769 0.292083L73.8693 2.93426L84.0982 -5.47266L94.0892 2.45387L96.7058 0.292083L117.163 14.4637L98.6088 5.33626L98.371 9.1794L85.2876 0.532289L82.1952 3.41465L89.3315 9.89998L80.2921 5.81665L77.6755 7.97842L71.9663 4.61564L69.5875 5.81665L81.0058 13.5029L66.0194 7.73822L50.3193 14.7039Z" fill="white"/>
<path d="M12.442 31.6497V33.2997L9.25557 38.5246L12.442 43.7495V45.3995H9.17389L6.06916 40.037H3.72701V45.3995H0.186523V31.6498H3.72701V37.0124H6.06916L9.17389 31.6498L12.442 31.6497ZM15.1657 45.3994V33.7119L17.2082 31.6494H25.1059L27.1485 33.7119V45.3994H23.608V41.5494H18.7057V45.3994H15.1657ZM18.7062 38.5243H23.6086V34.6743H18.7062V38.5243ZM41.4469 31.6497V34.6747L34.5023 42.3746H41.4469V45.3996H29.8721V42.3746L36.8167 34.6747H29.8721V31.6497H41.4469ZM44.1702 45.3994V33.7119L46.2128 31.6494H54.1105L56.1531 33.7119V45.3994H52.6126V41.5494H47.7103V45.3994H44.1702ZM47.7108 38.5243H52.6132V34.6743H47.7108V38.5243ZM71.5405 31.6497V33.2997L68.3541 38.5246L71.5405 43.7495V45.3995H68.2724L65.1677 40.037H62.8255V45.3995H59.285V31.6498H62.8255V37.0124H65.1677L68.2724 31.6498L71.5405 31.6497ZM82.7342 31.6497H86.2747V45.3994H82.7342V40.0369H77.8319V45.3994H74.2642L74.2915 31.6497H77.8319V37.0123H82.7342V31.6497ZM95.6703 34.6743V31.6494H107.245V34.6743H103.214V45.3994H99.674V34.6743H95.6703ZM119.364 31.6497L121.406 33.7122V43.3371L119.364 45.3996H111.466L109.424 43.3371V33.7122L111.466 31.6497H119.364ZM117.866 42.3744V34.6745H112.964V42.3744H117.866ZM124.539 43.3369V31.6494H128.08V42.3744H132.982V31.6494H136.522V43.3369L134.48 45.3994H126.581L124.539 43.3369ZM151.909 33.7119V38.5243L149.866 40.5868L151.909 43.7492V45.3992H148.641L145.809 40.7243H143.194V45.3992H139.654V31.6496H149.867L151.909 33.7119ZM148.369 37.6994V34.6745H143.194V37.6994H148.369ZM163.62 34.6743H158.582V37.0118H165.254L167.297 39.0743V43.3368L165.254 45.3992H157.084L155.041 43.3368V41.2742H157.629L158.718 42.3742H163.756V40.0368H157.084L155.041 37.9743V33.7119L157.084 31.6494H165.254L167.296 33.7119V35.7743H164.71L163.62 34.6743Z" fill="white"/>
</g>
</g>
<defs>
<clipPath id="clip0_245_50">
<rect width="167" height="50" fill="white"/>
</clipPath>
</defs>
</svg>
