<svg width="21" height="15" viewBox="0 0 21 15" fill="none" xmlns="http://www.w3.org/2000/svg">
<path d="M21 11.1935C21 10.2167 20.7278 9.26552 20.2129 8.44274C19.6313 7.51331 18.7908 6.82057 17.8203 6.4356C18.5641 5.76063 19.0337 4.77629 19.0337 3.68174C19.0337 1.65161 17.4187 0 15.4336 0C13.5916 0 12.0685 1.42203 11.8584 3.24894C11.4356 3.04645 10.9744 2.94165 10.5076 2.94201C10.0354 2.94157 9.56903 3.04871 9.14237 3.25564C8.93517 1.42553 7.41065 0 5.56644 0C3.58128 0 1.96626 1.65161 1.96626 3.68174C1.96626 4.77629 2.43592 5.76063 3.17973 6.4356C2.20916 6.82052 1.36875 7.51326 0.787089 8.44274C0.272673 9.26373 -0.00050612 10.2185 7.03945e-07 11.1935V13.6799H5.60659V15H15.4087V13.6799H21V11.1935ZM15.4336 1.26332C16.7376 1.26332 17.7984 2.34822 17.7984 3.68178C17.7984 4.9443 16.8474 5.98335 15.6396 6.09052H15.2276C14.5215 6.02786 13.9037 5.64685 13.5119 5.08874C13.3867 4.9027 13.2956 4.73068 13.1824 4.42202C13.107 4.18286 13.0686 3.93309 13.0687 3.68178C13.0687 2.34818 14.1295 1.26332 15.4336 1.26332ZM12.0733 5.003C12.2373 5.23953 12.3214 5.44022 12.3921 5.64959C12.4447 5.83278 12.4714 6.02272 12.4714 6.21365C12.4714 7.32108 11.5904 8.22201 10.5076 8.22201C9.42472 8.22201 8.54371 7.32104 8.54371 6.21365C8.54371 6.00011 8.57677 5.79441 8.63742 5.60121C8.71887 5.35601 8.78195 5.23237 8.90878 5.04958C9.2652 4.53904 9.84884 4.20529 10.5076 4.20529C11.1462 4.20533 11.7144 4.51879 12.0733 5.003ZM5.56644 1.26332C6.87042 1.26332 7.93133 2.34822 7.93133 3.68178C7.93138 3.95134 7.88716 4.21899 7.80051 4.47356C7.69592 4.67767 7.64132 4.83996 7.52245 5.03947C7.13292 5.62454 6.49921 6.02605 5.77253 6.09052H5.36048C4.15265 5.98335 3.20164 4.9443 3.20164 3.68178C3.20155 2.34818 4.26242 1.26332 5.56644 1.26332ZM5.61989 12.4166H1.23529V11.1935C1.23492 10.4599 1.44047 9.74148 1.82754 9.12373C2.52111 8.01546 3.70337 7.3538 4.99001 7.3538C5.30711 7.35476 5.65509 7.36693 5.97059 7.3538V7.3402C6.46507 7.28355 6.94255 7.12194 7.37244 6.86571C7.50709 7.54384 7.84782 8.14591 8.32415 8.60166C7.50503 8.94751 6.79646 9.54441 6.30095 10.3363C5.90928 10.9615 5.67528 11.6763 5.61989 12.4166ZM14.1734 13.7367H6.84188V12.7629C6.84156 12.1441 7.01492 11.5382 7.34139 11.0172C7.92639 10.0825 8.92348 9.5244 10.0087 9.5244H11.0066C12.0918 9.5244 13.0889 10.0825 13.6739 11.0172C14.0003 11.5382 14.1737 12.1441 14.1734 12.7629V13.7367ZM19.7647 12.4166H15.3953C15.3399 11.6763 15.106 10.9615 14.7143 10.3363C14.2188 9.54441 13.5102 8.94755 12.6911 8.60166C13.1655 8.14777 13.5055 7.54872 13.6413 6.874C14.0677 7.12547 14.5402 7.28418 15.0294 7.3402V7.3538C15.3445 7.36693 15.6934 7.35476 16.01 7.3538C17.2966 7.3538 18.4789 8.01546 19.1725 9.12373C19.5595 9.74148 19.7651 10.4599 19.7647 11.1935V12.4166Z" fill="black"/>
</svg>
