<svg width="20" height="21" viewBox="0 0 20 21" fill="none" xmlns="http://www.w3.org/2000/svg">
<path d="M20 20.842V18.842H15V14.842H20V12.842H15C13.89 12.842 13 13.732 13 14.842V15.842L8 15.842L8 5.84204L13 5.84204V6.84204C13 7.95204 13.89 8.84204 15 8.84204H20V6.84204H15V2.84204H20V0.842041H15C13.89 0.842041 13 1.73204 13 2.84204V3.84204H8C6.89 3.84204 6 4.73204 6 5.84204V9.84204H0V11.842H6L6 15.842C6 16.952 6.89 17.842 8 17.842H13V18.842C13 19.952 13.89 20.842 15 20.842H20Z" fill="white"/>
</svg>
