<svg width="14" height="16" viewBox="0 0 14 16" fill="none" xmlns="http://www.w3.org/2000/svg">
<path d="M0.700195 2.15078C0.700195 1.79274 0.842427 1.44936 1.0956 1.19619C1.34878 0.943013 1.69215 0.800781 2.0502 0.800781H11.9502C12.3082 0.800781 12.6516 0.943013 12.9048 1.19619C13.158 1.44936 13.3002 1.79274 13.3002 2.15078V3.05078C13.3002 3.40882 13.158 3.7522 12.9048 4.00538C12.6516 4.25855 12.3082 4.40078 11.9502 4.40078H2.0502C1.69215 4.40078 1.34878 4.25855 1.0956 4.00538C0.842427 3.7522 0.700195 3.40882 0.700195 3.05078V2.15078ZM2.0502 1.70078C1.93085 1.70078 1.81639 1.74819 1.732 1.83258C1.64761 1.91697 1.6002 2.03143 1.6002 2.15078V3.05078C1.6002 3.17013 1.64761 3.28459 1.732 3.36898C1.81639 3.45337 1.93085 3.50078 2.0502 3.50078H11.9502C12.0695 3.50078 12.184 3.45337 12.2684 3.36898C12.3528 3.28459 12.4002 3.17013 12.4002 3.05078V2.15078C12.4002 2.03143 12.3528 1.91697 12.2684 1.83258C12.184 1.74819 12.0695 1.70078 11.9502 1.70078H2.0502ZM0.700195 7.55078C0.700195 7.19274 0.842427 6.84936 1.0956 6.59619C1.34878 6.34301 1.69215 6.20078 2.0502 6.20078H11.9502C12.3082 6.20078 12.6516 6.34301 12.9048 6.59619C13.158 6.84936 13.3002 7.19274 13.3002 7.55078V8.45078C13.3002 8.80882 13.158 9.1522 12.9048 9.40538C12.6516 9.65855 12.3082 9.80078 11.9502 9.80078H2.0502C1.69215 9.80078 1.34878 9.65855 1.0956 9.40538C0.842427 9.1522 0.700195 8.80882 0.700195 8.45078V7.55078ZM2.0502 7.10078C1.93085 7.10078 1.81639 7.14819 1.732 7.23258C1.64761 7.31697 1.6002 7.43143 1.6002 7.55078V8.45078C1.6002 8.57013 1.64761 8.68459 1.732 8.76898C1.81639 8.85337 1.93085 8.90078 2.0502 8.90078H11.9502C12.0695 8.90078 12.184 8.85337 12.2684 8.76898C12.3528 8.68459 12.4002 8.57013 12.4002 8.45078V7.55078C12.4002 7.43143 12.3528 7.31697 12.2684 7.23258C12.184 7.14819 12.0695 7.10078 11.9502 7.10078H2.0502ZM2.0502 11.6008C1.69215 11.6008 1.34878 11.743 1.0956 11.9962C0.842427 12.2494 0.700195 12.5927 0.700195 12.9508V13.8508C0.700195 14.2088 0.842427 14.5522 1.0956 14.8054C1.34878 15.0585 1.69215 15.2008 2.0502 15.2008H11.9502C12.3082 15.2008 12.6516 15.0585 12.9048 14.8054C13.158 14.5522 13.3002 14.2088 13.3002 13.8508V12.9508C13.3002 12.5927 13.158 12.2494 12.9048 11.9962C12.6516 11.743 12.3082 11.6008 11.9502 11.6008H2.0502ZM1.6002 12.9508C1.6002 12.8314 1.64761 12.717 1.732 12.6326C1.81639 12.5482 1.93085 12.5008 2.0502 12.5008H11.9502C12.0695 12.5008 12.184 12.5482 12.2684 12.6326C12.3528 12.717 12.4002 12.8314 12.4002 12.9508V13.8508C12.4002 13.9701 12.3528 14.0846 12.2684 14.169C12.184 14.2534 12.0695 14.3008 11.9502 14.3008H2.0502C1.93085 14.3008 1.81639 14.2534 1.732 14.169C1.64761 14.0846 1.6002 13.9701 1.6002 13.8508V12.9508Z" fill="black"/>
</svg>
