<svg width="20" height="20" viewBox="0 0 20 20" fill="none" xmlns="http://www.w3.org/2000/svg">
<path fill-rule="evenodd" clip-rule="evenodd" d="M8.125 1.25C4.32804 1.25 1.25 4.32804 1.25 8.125C1.25 11.922 4.32804 15 8.125 15C9.57187 15 10.9144 14.553 12.0219 13.7897L16.6161 18.3839L18.3839 16.6161L13.7897 12.0219C14.553 10.9144 15 9.57187 15 8.125C15 4.32804 11.922 1.25 8.125 1.25ZM3.75 8.125C3.75 5.70875 5.70875 3.75 8.125 3.75C10.5412 3.75 12.5 5.70875 12.5 8.125C12.5 10.5412 10.5412 12.5 8.125 12.5C5.70875 12.5 3.75 10.5412 3.75 8.125Z" fill="#2B2D33"/>
</svg>
