<svg width="26" height="26" viewBox="0 0 26 26" fill="none" xmlns="http://www.w3.org/2000/svg">
<path d="M15.4761 5.57189L13.0271 3.0957L10.5237 5.57189M12.9999 3.0957V14.2386M9.28558 8.04808H8.04748C7.39075 8.04808 6.76092 8.30897 6.29655 8.77334C5.83217 9.23772 5.57129 9.86755 5.57129 10.5243V19.1909C5.57129 19.8477 5.83217 20.4775 6.29655 20.9419C6.76092 21.4063 7.39075 21.6671 8.04748 21.6671H17.9522C18.609 21.6671 19.2388 21.4063 19.7032 20.9419C20.1675 20.4775 20.4284 19.8477 20.4284 19.1909V10.5243C20.4284 9.86755 20.1675 9.23772 19.7032 8.77334C19.2388 8.30897 18.609 8.04808 17.9522 8.04808H16.7141" stroke="black" stroke-linecap="round" stroke-linejoin="round"/>
</svg>
