<svg width="20" height="20" viewBox="0 0 20 20" fill="none" xmlns="http://www.w3.org/2000/svg">
<path d="M8.99962 0L5.15347 2.30769L8.99962 4.61538V3.07692C12.8112 3.07692 15.9227 6.18846 15.9227 10C15.9227 13.8115 12.8112 16.9231 8.99962 16.9231C5.18809 16.9231 2.07655 13.8115 2.07655 10C2.07655 8.11308 2.75578 6.48462 3.99962 5.24L2.91809 4.15923C1.39193 5.68462 0.538086 7.73308 0.538086 10C0.538086 14.65 4.34962 18.4615 8.99962 18.4615C13.6496 18.4615 17.4612 14.65 17.4612 10C17.4612 5.35 13.6496 1.53846 8.99962 1.53846V0ZM7.38886 5.04846L5.99501 5.72154L7.94193 9.56769C7.88297 9.70446 7.85035 9.85113 7.84578 10V10.0485L5.36962 12.5231L6.47655 13.6308L8.9527 11.1546H8.99962C9.30564 11.1546 9.59913 11.033 9.81552 10.8167C10.0319 10.6003 10.1535 10.3068 10.1535 10.0008C10.1535 9.47 9.80039 9.02923 9.31193 8.89462L7.38886 5.04846Z" fill="black"/>
</svg>
